  0
SECTION
  2
HEADER
  9
$ACADVER
  1
AC2.10
  0
ENDSEC
  0
SECTION
  2
TABLES
  0
TABLE
  2
LAYER
 70
     8
  0
LAYER
  2
0
 62
     7
 70
0
  6
CONTINUOUS
  0
LAYER
  2
1
 62
     1
 70
0
  6
CONTINUOUS
  0
LAYER
  2
2
 62
     2
 70
0
  6
CONTINUOUS
  0
LAYER
  2
3
 62
     3
 70
0
  6
CONTINUOUS
  0
LAYER
  2
4
 62
     4
 70
0
  6
CONTINUOUS
  0
LAYER
  2
5
 62
     5
 70
0
  6
CONTINUOUS
  0
LAYER
  2
6
 62
     6
 70
0
  6
CONTINUOUS
  0
LAYER
  2
7
 62
     7
 70
0
  6
CONTINUOUS
  0
ENDTAB
  0
TABLE
  2
STYLE
 70
     1
  0
STYLE
 70
     0
  2
STANDARD
  3
TXT
 40
0.00
 41
1.00
 42
1.00
 50
0.00
 71
     0
  0
ENDTAB
  0
ENDSEC
  0
SECTION
  2
BLOCKS
  0
BLOCK
  8
0
  2
EPAD
 70
0
 10
0.0
 20
0.0
  0
POLYLINE
  8
0
 66
1
 70
1
 40
0.5
 41
0.5
  0
VERTEX
  8
0
 10
-0.25
 20
0.0
 42
1.0
  0
VERTEX
  8
0
 10
0.25
 20
0.0
 42
1.0
  0
SEQEND
  8
0
  0
ENDBLK
  8
0
  0
BLOCK
  8
0
  2
RPAD
 70
0
 10
0.0
 20
0.0
  0
TRACE
  8
0
 10
-0.5
 20
-0.5
 11
-0.5
 21
0.5
 12
0.5
 22
-0.5
 13
0.5
 23
0.5
  0
ENDBLK
  8
0
  0
ENDSEC
0
SECTION
2
ENTITIES
0
POLYLINE
8
0
66
1
70
1
40
0
41
0
0
VERTEX
8
0
10
0.094000
20
-0.056000
0
VERTEX
8
0
10
0.172000
20
-0.056000
0
VERTEX
8
0
10
0.172000
20
0.012000
0
VERTEX
8
0
10
0.101000
20
0.012000
0
VERTEX
8
0
10
0.025000
20
-0.063000
0
VERTEX
8
0
10
0.025000
20
-0.135000
0
VERTEX
8
0
10
0.094000
20
-0.135000
0
VERTEX
8
0
10
0.094000
20
-0.056000
0
SEQEND
8
0
0
POLYLINE
8
0
66
1
40
0.000000
41
0.000000
0
VERTEX
8
0
10
-0.142000
20
0.100000
0
VERTEX
8
0
10
-0.064000
20
0.100000
0
VERTEX
8
0
10
-0.064000
20
0.169000
0
VERTEX
8
0
10
-0.135000
20
0.169000
0
SEQEND
8
0
0
POLYLINE
8
0
66
1
40
0.000000
41
0.000000
0
VERTEX
8
0
10
-0.142000
20
0.100000
0
VERTEX
8
0
10
-0.142000
20
0.021000
0
SEQEND
8
0
0
POLYLINE
8
0
66
1
40
0.000000
41
0.000000
0
VERTEX
8
0
10
-0.135000
20
0.169000
0
VERTEX
8
0
10
-0.211000
20
0.093000
0
VERTEX
8
0
10
-0.211000
20
0.021000
0
VERTEX
8
0
10
-0.142000
20
0.021000
0
SEQEND
8
0
0
POLYLINE
8
0
66
1
40
0.000000
41
0.000000
0
VERTEX
8
0
10
-0.084000
20
0.114000
0
VERTEX
8
0
10
-0.044000
20
0.114000
0
VERTEX
8
0
10
-0.044000
20
0.154000
0
VERTEX
8
0
10
-0.084000
20
0.154000
0
VERTEX
8
0
10
-0.084000
20
0.114000
0
SEQEND
8
0
0
POLYLINE
8
0
66
1
40
0.000000
41
0.000000
0
VERTEX
8
0
10
-0.104000
20
0.134000
0
VERTEX
8
0
10
-0.024000
20
0.134000
0
SEQEND
8
0
0
POLYLINE
8
0
66
1
40
0.000000
41
0.000000
0
VERTEX
8
0
10
-0.064000
20
0.174000
0
VERTEX
8
0
10
-0.064000
20
0.094000
0
SEQEND
8
0
0
POLYLINE
8
0
66
1
40
0.000000
41
0.000000
0
VERTEX
8
0
10
0.059000
20
-0.174000
0
VERTEX
8
0
10
0.059000
20
-0.022000
0
VERTEX
8
0
10
0.211000
20
-0.022000
0
SEQEND
8
0
0
ENDSEC
0
EOF

